<svg width="56" height="56" viewBox="0 0 56 56" fill="none" xmlns="http://www.w3.org/2000/svg">
<rect opacity="0.16" width="56" height="56" rx="4" fill="#35CCB0"/>
<path d="M27.9999 8C39.0449 8 48 16.955 48 28.0001C48 39.0451 39.045 48 28.0001 48C16.9551 48 8 39.045 8 28.0001C8 16.9551 16.9538 8 27.9999 8Z" fill="#258F7B"/>
<path d="M37.945 26.3063L37.7751 25.9587L37.4939 25.7388C37.125 25.4512 35.2602 25.7588 34.7576 25.3025C34.4013 24.9763 34.3451 24.3875 34.2376 23.5925C34.0376 22.0476 33.9102 21.9675 33.6689 21.4463C32.7901 19.5876 30.4076 18.1913 28.7702 17.9976H24.3352C20.8465 17.9976 17.9952 20.8438 17.9952 24.3201V31.6926C17.9952 35.1614 20.8465 38.0027 24.3352 38.0027H31.6215C35.1116 38.0027 37.9453 35.1627 37.964 31.6926L38.0027 26.5851C38.0024 26.585 37.945 26.3063 37.945 26.3063ZM24.2813 23.0075H27.9712C28.6737 23.0075 29.2463 23.5688 29.2463 24.2524C29.2463 24.9337 28.6751 25.5 27.9712 25.5H24.2813C23.5776 25.5 23.0062 24.9337 23.0062 24.2524C23.0062 23.5688 23.5776 23.0075 24.2813 23.0075ZM31.7413 32.9987H24.2763C23.5751 32.9987 23.0064 32.4263 23.0064 31.7462C23.0064 31.0562 23.5751 30.4949 24.2763 30.4949H31.7413C32.4388 30.4949 33.0038 31.0562 33.0038 31.7462C33.0038 32.4263 32.4388 32.9987 31.7413 32.9987Z" fill="#35CCB0"/>
</svg>
