<svg width="32" height="32" viewBox="0 0 32 32" fill="none" xmlns="http://www.w3.org/2000/svg">
<rect opacity="0.16" width="32" height="32" rx="4" fill="url(#paint0_linear)"/>
<mask id="mask0" mask-type="alpha" maskUnits="userSpaceOnUse" x="8" y="8" width="16" height="16">
<path d="M9.26429 8C8.92934 8 8.60811 8.13308 8.37127 8.36997C8.13443 8.60685 8.00137 8.92814 8.00137 9.26315C8.00137 9.59816 8.13443 9.91944 8.37127 10.1563C8.60811 10.3932 8.92934 10.5263 9.26429 10.5263L19.1656 10.5263C19.2072 10.5264 19.2478 10.5388 19.2824 10.562C19.3169 10.5852 19.3438 10.6181 19.3597 10.6566C19.3755 10.6951 19.3796 10.7374 19.3715 10.7782C19.3633 10.819 19.3432 10.8565 19.3137 10.8859L8.3693 21.8441C8.1326 22.0812 7.99976 22.4026 8 22.7376C8.00024 23.0727 8.13353 23.3939 8.37056 23.6306C8.60759 23.8674 8.92894 24.0002 9.26392 24C9.59889 23.9998 9.92005 23.8664 10.1567 23.6294L21.1147 12.6577C21.1441 12.6281 21.1816 12.608 21.2225 12.5999C21.2634 12.5917 21.3058 12.5959 21.3443 12.6118C21.3828 12.6278 21.4157 12.6549 21.4388 12.6895C21.4619 12.7242 21.4742 12.765 21.4742 12.8067L21.4742 22.7367C21.4742 23.0718 21.6072 23.393 21.8441 23.6299C22.0809 23.8668 22.4021 23.9999 22.7371 23.9999C23.072 23.9999 23.3933 23.8668 23.6301 23.6299C23.8669 23.393 24 23.0718 24 22.7367L24 10.1052C24 9.82864 23.9455 9.55475 23.8396 9.29922C23.7337 9.04369 23.5785 8.81153 23.3829 8.61602C23.1873 8.4205 22.955 8.26547 22.6995 8.15977C22.4439 8.05407 22.17 7.99978 21.8935 8L9.26429 8Z" fill="#050000"/>
</mask>
<g mask="url(#mask0)">
<rect x="4" y="4" width="24" height="24" fill="#207A6A"/>
</g>
<defs>
<linearGradient id="paint0_linear" x1="0" y1="0" x2="11.8007" y2="38.2343" gradientUnits="userSpaceOnUse">
<stop stop-color="#207A6A"/>
<stop offset="0.415181" stop-color="#258F7B"/>
<stop offset="0.746284" stop-color="#30B89F"/>
<stop offset="0.994792" stop-color="#35CCB0"/>
</linearGradient>
</defs>
</svg>
