<svg width="56" height="56" viewBox="0 0 56 56" fill="none" xmlns="http://www.w3.org/2000/svg">
<rect opacity="0.16" width="56" height="56" rx="4" fill="#35CCB0"/>
<path d="M8 39C8 34.0294 12.0294 30 17 30C21.9706 30 26 34.0294 26 39C26 43.9706 21.9706 48 17 48C12.0294 48 8 43.9706 8 39Z" fill="#35CCB0"/>
<path d="M8 9C8 8.44772 8.44772 8 9 8H47C47.5523 8 48 8.44772 48 9V47C48 47.5523 47.5523 48 47 48H31C30.4477 48 30 47.5523 30 47V27C30 26.4477 29.5523 26 29 26H9C8.44772 26 8 25.5523 8 25V9Z" fill="#258F7B"/>
</svg>
