<svg xmlns="http://www.w3.org/2000/svg" viewBox="0 0 292.15 57.86"><defs><style>.cls-1{fill:#eb655e;}.cls-2{fill:#ffb468;}</style></defs><title>bottom bar</title><g id="Layer_2" data-name="Layer 2"><g id="Layer_1-2" data-name="Layer 1"><path class="cls-1" d="M292.15,2.95v52a2.92,2.92,0,0,1-1.41,2.46,3.44,3.44,0,0,1-1.76.49H3.17a3.07,3.07,0,0,1-3.17-3v-52A3.07,3.07,0,0,1,3.17,0H289A3.07,3.07,0,0,1,292.15,2.95Z"/><path class="cls-2" d="M292.15,2.95v52a2.92,2.92,0,0,1-1.41,2.46,3.44,3.44,0,0,1-1.76.49H255.2c-23.68-9.19-40.32-31-40.32-56.33,0-.51,0-1,0-1.53H289A3.07,3.07,0,0,1,292.15,2.95Z"/><path class="cls-2" d="M34.55,57.86H3.17a3.07,3.07,0,0,1-3.17-3V23.05C19.33,24.45,34.55,39.5,34.55,57.86Z"/></g></g></svg>