<svg xmlns="http://www.w3.org/2000/svg" viewBox="0 0 585.42 585.42"><defs><style>.cls-1,.cls-2,.cls-3,.cls-4{fill:none;stroke:#d1d3d4;stroke-linecap:round;stroke-miterlimit:10;}.cls-1{stroke-width:1.18px;}.cls-2{stroke-width:1.28px;}.cls-3{stroke-width:1.37px;}.cls-4{stroke-width:1.56px;}</style></defs><title>full-spring</title><g id="Layer_2" data-name="Layer 2"><g id="Layer_1-2" data-name="Layer 1"><circle class="cls-1" cx="292.71" cy="292.71" r="32.45"/><circle class="cls-1" cx="292.71" cy="292.71" r="42"/><circle class="cls-1" cx="292.71" cy="292.71" r="50.63"/><circle class="cls-1" cx="292.71" cy="292.71" r="59.79"/><circle class="cls-1" cx="292.71" cy="292.71" r="67.95"/><circle class="cls-1" cx="292.71" cy="292.71" r="81.77"/><circle class="cls-1" cx="292.71" cy="292.71" r="94.55"/><circle class="cls-1" cx="292.71" cy="292.71" r="110.82"/><circle class="cls-1" cx="292.71" cy="292.71" r="129.09"/><circle class="cls-1" cx="292.71" cy="292.71" r="149.02"/><circle class="cls-1" cx="292.71" cy="292.71" r="140.6"/><circle class="cls-1" cx="292.71" cy="292.71" r="169.38"/><circle class="cls-1" cx="292.71" cy="292.71" r="192.72"/><circle class="cls-1" cx="292.71" cy="292.71" r="220.67"/><circle class="cls-2" cx="292.71" cy="292.71" r="240.09"/><circle class="cls-1" cx="292.71" cy="292.71" r="32.45"/><circle class="cls-1" cx="292.71" cy="292.71" r="42"/><circle class="cls-1" cx="292.71" cy="292.71" r="50.63"/><circle class="cls-1" cx="292.71" cy="292.71" r="59.79"/><circle class="cls-1" cx="292.71" cy="292.71" r="67.95"/><circle class="cls-1" cx="292.71" cy="292.71" r="81.77"/><circle class="cls-1" cx="292.71" cy="292.71" r="94.55"/><circle class="cls-1" cx="292.71" cy="292.71" r="110.82"/><circle class="cls-1" cx="292.71" cy="292.71" r="129.09"/><circle class="cls-1" cx="292.71" cy="292.71" r="149.02"/><circle class="cls-1" cx="292.71" cy="292.71" r="140.6"/><circle class="cls-1" cx="292.71" cy="292.71" r="169.38"/><circle class="cls-1" cx="292.71" cy="292.71" r="192.72"/><circle class="cls-1" cx="292.71" cy="292.71" r="220.67"/><circle class="cls-2" cx="292.71" cy="292.71" r="240.09"/><circle class="cls-3" cx="292.71" cy="292.71" r="256.61"/><circle class="cls-4" cx="292.71" cy="292.71" r="291.93"/></g></g></svg>