<svg xmlns="http://www.w3.org/2000/svg" viewBox="0 0 1237.52 219.85"><defs><style>.cls-1,.cls-2,.cls-3,.cls-4,.cls-5{fill:none;stroke-linecap:round;stroke-miterlimit:10;}.cls-1,.cls-2,.cls-3,.cls-4{stroke:#bcbec0;}.cls-1{stroke-width:1.5px;}.cls-2{stroke-width:1.63px;}.cls-3{stroke-width:1.74px;}.cls-4{stroke-width:1.98px;}.cls-5{stroke:#e0e0e0;stroke-width:1.06px;}</style></defs><title>springs-img-1</title><g id="Layer_2" data-name="Layer 2"><g id="Layer_1-2" data-name="Layer 1"><circle class="cls-1" cx="1046.69" cy="93.98" r="41.33"/><circle class="cls-1" cx="1046.69" cy="93.98" r="53.5"/><circle class="cls-1" cx="1046.69" cy="93.98" r="64.5"/><circle class="cls-1" cx="1046.69" cy="93.98" r="76.17"/><circle class="cls-1" cx="1046.69" cy="93.98" r="86.56"/><path class="cls-1" d="M1093.65,1a104.17,104.17,0,1,1-93.93,0"/><path class="cls-1" d="M970.14,1a120.44,120.44,0,1,0,153.09,0"/><path class="cls-1" d="M1112.58,218.86A141.2,141.2,0,0,0,1152.89,1"/><path class="cls-1" d="M940.48,1a141.2,141.2,0,0,0,40.31,217.87"/><path class="cls-1" d="M1153.67,218.86A164.48,164.48,0,0,0,1182.32,1"/><path class="cls-1" d="M911.05,1A164.48,164.48,0,0,0,939.7,218.86"/><path class="cls-1" d="M1212.22,1a188.49,188.49,0,0,1,22.12,64.15,189.79,189.79,0,0,1-44.67,153.72"/><path class="cls-1" d="M881.15,1a189.93,189.93,0,0,0,22.56,217.87"/><path class="cls-1" d="M1175.07,218.86A179.18,179.18,0,0,0,1199.79,1"/><path class="cls-1" d="M893.58,1A179.18,179.18,0,0,0,918.3,218.86"/><path class="cls-1" d="M1234.35,200.55a212.46,212.46,0,0,1-11.67,18.31"/><path class="cls-1" d="M1234.35,122.82a191.86,191.86,0,0,0,0-57.68"/><path class="cls-1" d="M851.94,1a216,216,0,0,0,18.77,217.87"/><path class="cls-1" d="M819.41,1a246,246,0,0,0,15.87,217.87"/><path class="cls-1" d="M1234.35,122.82a191.86,191.86,0,0,0,0-57.68"/><path class="cls-1" d="M781.33,1a282,282,0,0,0,13.45,217.87"/><path class="cls-1" d="M1234.35,122.82a191.86,191.86,0,0,0,0-57.68"/><path class="cls-2" d="M1234.35,122.82a191.86,191.86,0,0,0,0-57.68"/><path class="cls-2" d="M755.25,1a307,307,0,0,0,12.18,217.87"/><circle class="cls-1" cx="1046.69" cy="93.98" r="41.33"/><circle class="cls-1" cx="1046.69" cy="93.98" r="53.5"/><circle class="cls-1" cx="1046.69" cy="93.98" r="64.5"/><circle class="cls-1" cx="1046.69" cy="93.98" r="76.17"/><circle class="cls-1" cx="1046.69" cy="93.98" r="86.56"/><path class="cls-1" d="M1093.65,1a104.17,104.17,0,1,1-93.93,0"/><path class="cls-1" d="M970.14,1a120.44,120.44,0,1,0,153.09,0"/><path class="cls-1" d="M1112.58,218.86A141.2,141.2,0,0,0,1152.89,1"/><path class="cls-1" d="M940.48,1a141.2,141.2,0,0,0,40.31,217.87"/><path class="cls-1" d="M1153.67,218.86A164.48,164.48,0,0,0,1182.32,1"/><path class="cls-1" d="M911.05,1A164.48,164.48,0,0,0,939.7,218.86"/><path class="cls-1" d="M1212.22,1a188.49,188.49,0,0,1,22.12,64.15,189.79,189.79,0,0,1-44.67,153.72"/><path class="cls-1" d="M881.15,1a189.93,189.93,0,0,0,22.56,217.87"/><path class="cls-1" d="M1175.07,218.86A179.18,179.18,0,0,0,1199.79,1"/><path class="cls-1" d="M893.58,1A179.18,179.18,0,0,0,918.3,218.86"/><path class="cls-1" d="M1234.35,200.55a212.46,212.46,0,0,1-11.67,18.31"/><path class="cls-1" d="M1234.35,122.82a191.86,191.86,0,0,0,0-57.68"/><path class="cls-1" d="M851.94,1a216,216,0,0,0,18.77,217.87"/><path class="cls-1" d="M819.41,1a246,246,0,0,0,15.87,217.87"/><path class="cls-1" d="M1234.35,122.82a191.86,191.86,0,0,0,0-57.68"/><path class="cls-1" d="M781.33,1a282,282,0,0,0,13.45,217.87"/><path class="cls-1" d="M1234.35,122.82a191.86,191.86,0,0,0,0-57.68"/><path class="cls-2" d="M1234.35,122.82a191.86,191.86,0,0,0,0-57.68"/><path class="cls-2" d="M755.25,1a307,307,0,0,0,12.18,217.87"/><path class="cls-3" d="M1234.35,122.82a191.86,191.86,0,0,0,0-57.68"/><path class="cls-3" d="M733.23,1a328.32,328.32,0,0,0,11.29,217.87"/><path class="cls-4" d="M686.53,1a374,374,0,0,0,9.78,217.87"/><path class="cls-4" d="M1234.35,122.82a191.86,191.86,0,0,0,0-57.68"/><rect class="cls-5" x="0.53" y="0.99" width="1236" height="217.87"/></g></g></svg>